<?xml version="1.0" encoding="utf-8"?>
<!-- Generator: Adobe Illustrator 27.0.1, SVG Export Plug-In . SVG Version: 6.00 Build 0)  -->
<svg version="1.1" id="Layer_1" xmlns="http://www.w3.org/2000/svg" xmlns:xlink="http://www.w3.org/1999/xlink" x="0px" y="0px"
	 viewBox="0 0 1024 267.8" style="enable-background:new 0 0 1024 267.8;" xml:space="preserve">
<g>
	<path d="M0,225.6V42.1h55.1v183.5H0z"/>
	<path d="M136.3,152.2v73.4H81.3V42.1h55.1v36.7h18.3v36.7H173V42.1h55.1v183.5H173v-36.7h-18.3v-36.7H136.3z"/>
	<path d="M309.4,152.2v73.4h-55.1V42.1h128.5v36.7h-73.4v36.7h55.1v36.7H309.4z"/>
	<path d="M409,225.6V42.1h128.5v183.5H409z M482.4,188.9V78.8h-18.3v110.1H482.4z"/>
	<path d="M595.4,120.8l-18.6,104.8h-26.2l32.2-183.4h104.8l-4.4,26.2h-78.6l-4.7,26.2h78.6l-4.4,26.2H595.4z M704.7,94.6h-26.2
		l4.7-26.2h26.2L704.7,94.6z"/>
	<path d="M740.1,42.2h26.2L748,147h-26.2L740.1,42.2z M738.8,199.4L748,147h26.2l-9.2,52.4H738.8z M791.2,199.4l-4.7,26.2h-26.2
		l4.7-26.2H791.2z M817.4,199.4h-26.2l9.2-52.4h26.2L817.4,199.4z M852.8,147h-26.2l18.3-104.8h26.2L852.8,147z"/>
	<path d="M910,120.8l-18.6,104.8h-26.2l32.2-183.4h104.8l-4.4,26.2h-78.6l-4.7,26.2h78.6l-4.4,26.2H910z M1019.3,94.6h-26.2
		l4.7-26.2h26.2L1019.3,94.6z"/>
</g>
</svg>
